<svg width="100" height="100" viewBox="0 0 100 100" fill="none" xmlns="http://www.w3.org/2000/svg">
<g id="android">
<g id="android_2">
<path id="Vector" d="M73.0126 64.0927C70.7166 64.0927 68.8489 62.2235 68.8489 59.9274C68.8489 57.6314 70.7166 55.7637 73.0126 55.7637C75.3091 55.7637 77.1768 57.631 77.1768 59.9274C77.1768 62.2239 75.3091 64.0927 73.0126 64.0927ZM26.9874 64.0927C24.6913 64.0927 22.8236 62.2235 22.8236 59.9274C22.8236 57.6314 24.6909 55.7637 26.9874 55.7637C29.2834 55.7637 31.1511 57.631 31.1511 59.9274C31.1511 62.2239 29.2838 64.0927 26.9874 64.0927ZM74.5061 39.0096L82.8283 24.5961C83.0574 24.1984 83.1193 23.726 83.0005 23.2826C82.8817 22.8392 82.5918 22.4611 82.1945 22.2311C81.7967 22.0021 81.3244 21.9403 80.881 22.0591C80.4377 22.1779 80.0595 22.4677 79.8295 22.8649L71.4033 37.4605C64.9592 34.52 57.7223 32.8817 50 32.8817C42.2777 32.8817 35.0409 34.52 28.5971 37.4605L20.1705 22.8649C19.9405 22.4677 19.5624 22.1779 19.119 22.0591C18.6756 21.9403 18.2033 22.0021 17.8055 22.2311C17.408 22.4608 17.1179 22.839 16.9991 23.2825C16.8802 23.7259 16.9423 24.1984 17.1717 24.5961L25.4939 39.0096C11.2035 46.7819 1.42983 61.249 0 78.3411H100C98.569 61.2494 88.7953 46.7819 74.5061 39.0092" fill="#3DDB85"/>
</g>
</g>
</svg>
